solid airfoil
 facet normal 1 -0 0
  outer loop
   vertex 210 11.231 55
   vertex 210 11.469 5
   vertex 210 11.469 55
  endloop
 endfacet
 facet normal 1 0 0
  outer loop
   vertex 210 11.469 5
   vertex 210 11.231 55
   vertex 210 11.231 5
  endloop
 endfacet
 facet normal 0.220474 0.975393 -0
  outer loop
   vertex 210 11.469 5
   vertex 189.816 16.0314 55
   vertex 210 11.469 55
  endloop
 endfacet
 facet normal 0.220474 0.975393 0
  outer loop
   vertex 189.816 16.0314 55
   vertex 210 11.469 5
   vertex 189.816 16.0314 5
  endloop
 endfacet
 facet normal 0.0389983 -0.999239 0
  outer loop
   vertex 50.2496 4.99624 5
   vertex 210 11.231 55
   vertex 50.2496 4.99624 55
  endloop
 endfacet
 facet normal 0.0389983 -0.999239 0
  outer loop
   vertex 210 11.231 55
   vertex 50.2496 4.99624 5
   vertex 210 11.231 5
  endloop
 endfacet
 facet normal -0.090445 -0.995901 0
  outer loop
   vertex 15.188 6.51602 5
   vertex 30.2423 5.14883 55
   vertex 15.188 6.51602 55
  endloop
 endfacet
 facet normal -0.090445 -0.995901 -0
  outer loop
   vertex 30.2423 5.14883 55
   vertex 15.188 6.51602 5
   vertex 30.2423 5.14883 5
  endloop
 endfacet
 facet normal -0.00946333 0.999955 0
  outer loop
   vertex 89.2938 29.273 5
   vertex 69.3018 29.0838 55
   vertex 89.2938 29.273 55
  endloop
 endfacet
 facet normal -0.00946333 0.999955 0
  outer loop
   vertex 69.3018 29.0838 55
   vertex 89.2938 29.273 5
   vertex 69.3018 29.0838 5
  endloop
 endfacet
 facet normal -0.00762649 -0.999971 0
  outer loop
   vertex 30.2423 5.14883 5
   vertex 50.2496 4.99624 55
   vertex 30.2423 5.14883 55
  endloop
 endfacet
 facet normal -0.00762649 -0.999971 -0
  outer loop
   vertex 50.2496 4.99624 55
   vertex 30.2423 5.14883 5
   vertex 50.2496 4.99624 5
  endloop
 endfacet
 facet normal 0 0 -1
  outer loop
   vertex 210 11.231 5
   vertex 189.816 16.0314 5
   vertex 210 11.469 5
  endloop
 endfacet
 facet normal 0 0 -1
  outer loop
   vertex 50.2496 4.99624 5
   vertex 189.816 16.0314 5
   vertex 210 11.231 5
  endloop
 endfacet
 facet normal -0 0 -1
  outer loop
   vertex 189.816 16.0314 5
   vertex 50.2496 4.99624 5
   vertex 169.656 20.078 5
  endloop
 endfacet
 facet normal -0 0 -1
  outer loop
   vertex 169.656 20.078 5
   vertex 50.2496 4.99624 5
   vertex 149.517 23.5479 5
  endloop
 endfacet
 facet normal -0 0 -1
  outer loop
   vertex 149.517 23.5479 5
   vertex 50.2496 4.99624 5
   vertex 129.406 26.3524 5
  endloop
 endfacet
 facet normal -0 0 -1
  outer loop
   vertex 129.406 26.3524 5
   vertex 50.2496 4.99624 5
   vertex 109.332 28.2812 5
  endloop
 endfacet
 facet normal -0 0 -1
  outer loop
   vertex 109.332 28.2812 5
   vertex 50.2496 4.99624 5
   vertex 89.2938 29.273 5
  endloop
 endfacet
 facet normal 0 0 -1
  outer loop
   vertex 89.2938 29.273 5
   vertex 50.2496 4.99624 5
   vertex 69.3018 29.0838 5
  endloop
 endfacet
 facet normal 0 0 -1
  outer loop
   vertex 50.2496 4.99624 5
   vertex 49.3646 27.4572 5
   vertex 69.3018 29.0838 5
  endloop
 endfacet
 facet normal 0 0 -1
  outer loop
   vertex 29.519 23.4777 5
   vertex 50.2496 4.99624 5
   vertex 30.2423 5.14883 5
  endloop
 endfacet
 facet normal 0 0 -1
  outer loop
   vertex 50.2496 4.99624 5
   vertex 29.519 23.4777 5
   vertex 49.3646 27.4572 5
  endloop
 endfacet
 facet normal 0 0 -1
  outer loop
   vertex 30.2423 5.14883 5
   vertex 19.671 19.6294 5
   vertex 29.519 23.4777 5
  endloop
 endfacet
 facet normal 0 0 -1
  outer loop
   vertex 15.188 6.51602 5
   vertex 19.671 19.6294 5
   vertex 30.2423 5.14883 5
  endloop
 endfacet
 facet normal 0 0 -1
  outer loop
   vertex 15.188 6.51602 5
   vertex 14.7821 16.8157 5
   vertex 19.671 19.6294 5
  endloop
 endfacet
 facet normal 0 -0 -1
  outer loop
   vertex 14.7821 16.8157 5
   vertex 15.188 6.51602 5
   vertex 10 11.35 5
  endloop
 endfacet
 facet normal -0.681703 -0.731629 0
  outer loop
   vertex 10 11.35 5
   vertex 15.188 6.51602 55
   vertex 10 11.35 55
  endloop
 endfacet
 facet normal -0.681703 -0.731629 -0
  outer loop
   vertex 15.188 6.51602 55
   vertex 10 11.35 5
   vertex 15.188 6.51602 5
  endloop
 endfacet
 facet normal 0 0 1
  outer loop
   vertex 189.816 16.0314 55
   vertex 210 11.231 55
   vertex 210 11.469 55
  endloop
 endfacet
 facet normal 0 0 1
  outer loop
   vertex 50.2496 4.99624 55
   vertex 189.816 16.0314 55
   vertex 169.656 20.078 55
  endloop
 endfacet
 facet normal 0 0 1
  outer loop
   vertex 50.2496 4.99624 55
   vertex 169.656 20.078 55
   vertex 149.517 23.5479 55
  endloop
 endfacet
 facet normal 0 0 1
  outer loop
   vertex 50.2496 4.99624 55
   vertex 149.517 23.5479 55
   vertex 129.406 26.3524 55
  endloop
 endfacet
 facet normal 0 0 1
  outer loop
   vertex 50.2496 4.99624 55
   vertex 129.406 26.3524 55
   vertex 109.332 28.2812 55
  endloop
 endfacet
 facet normal 0 0 1
  outer loop
   vertex 50.2496 4.99624 55
   vertex 109.332 28.2812 55
   vertex 89.2938 29.273 55
  endloop
 endfacet
 facet normal 0 0 1
  outer loop
   vertex 50.2496 4.99624 55
   vertex 89.2938 29.273 55
   vertex 69.3018 29.0838 55
  endloop
 endfacet
 facet normal 0 0 1
  outer loop
   vertex 189.816 16.0314 55
   vertex 50.2496 4.99624 55
   vertex 210 11.231 55
  endloop
 endfacet
 facet normal -0 0 1
  outer loop
   vertex 49.3646 27.4572 55
   vertex 50.2496 4.99624 55
   vertex 69.3018 29.0838 55
  endloop
 endfacet
 facet normal -0 0 1
  outer loop
   vertex 29.519 23.4777 55
   vertex 50.2496 4.99624 55
   vertex 49.3646 27.4572 55
  endloop
 endfacet
 facet normal 0 0 1
  outer loop
   vertex 50.2496 4.99624 55
   vertex 29.519 23.4777 55
   vertex 30.2423 5.14883 55
  endloop
 endfacet
 facet normal -0 0 1
  outer loop
   vertex 19.671 19.6294 55
   vertex 30.2423 5.14883 55
   vertex 29.519 23.4777 55
  endloop
 endfacet
 facet normal 0 0 1
  outer loop
   vertex 19.671 19.6294 55
   vertex 15.188 6.51602 55
   vertex 30.2423 5.14883 55
  endloop
 endfacet
 facet normal -0 0 1
  outer loop
   vertex 14.7821 16.8157 55
   vertex 15.188 6.51602 55
   vertex 19.671 19.6294 55
  endloop
 endfacet
 facet normal 0 0 1
  outer loop
   vertex 15.188 6.51602 55
   vertex 14.7821 16.8157 55
   vertex 10 11.35 55
  endloop
 endfacet
 facet normal 0.0494358 0.998777 -0
  outer loop
   vertex 109.332 28.2812 5
   vertex 89.2938 29.273 55
   vertex 109.332 28.2812 55
  endloop
 endfacet
 facet normal 0.0494358 0.998777 0
  outer loop
   vertex 89.2938 29.273 55
   vertex 109.332 28.2812 5
   vertex 89.2938 29.273 5
  endloop
 endfacet
 facet normal -0.498818 0.866707 0
  outer loop
   vertex 19.671 19.6294 5
   vertex 14.7821 16.8157 55
   vertex 19.671 19.6294 55
  endloop
 endfacet
 facet normal -0.498818 0.866707 0
  outer loop
   vertex 14.7821 16.8157 55
   vertex 19.671 19.6294 5
   vertex 14.7821 16.8157 5
  endloop
 endfacet
 facet normal -0.752603 0.658474 0
  outer loop
   vertex 10 11.35 5
   vertex 14.7821 16.8157 55
   vertex 14.7821 16.8157 5
  endloop
 endfacet
 facet normal -0.752603 0.658474 0
  outer loop
   vertex 14.7821 16.8157 55
   vertex 10 11.35 5
   vertex 10 11.35 55
  endloop
 endfacet
 facet normal 0.138114 0.990416 -0
  outer loop
   vertex 149.517 23.5479 5
   vertex 129.406 26.3524 55
   vertex 149.517 23.5479 55
  endloop
 endfacet
 facet normal 0.138114 0.990416 0
  outer loop
   vertex 129.406 26.3524 55
   vertex 149.517 23.5479 5
   vertex 129.406 26.3524 5
  endloop
 endfacet
 facet normal -0.081316 0.996688 0
  outer loop
   vertex 69.3018 29.0838 5
   vertex 49.3646 27.4572 55
   vertex 69.3018 29.0838 55
  endloop
 endfacet
 facet normal -0.081316 0.996688 0
  outer loop
   vertex 49.3646 27.4572 55
   vertex 69.3018 29.0838 5
   vertex 49.3646 27.4572 5
  endloop
 endfacet
 facet normal -0.363966 0.931412 0
  outer loop
   vertex 29.519 23.4777 5
   vertex 19.671 19.6294 55
   vertex 29.519 23.4777 55
  endloop
 endfacet
 facet normal -0.363966 0.931412 0
  outer loop
   vertex 19.671 19.6294 55
   vertex 29.519 23.4777 5
   vertex 19.671 19.6294 5
  endloop
 endfacet
 facet normal -0.196609 0.980482 0
  outer loop
   vertex 49.3646 27.4572 5
   vertex 29.519 23.4777 55
   vertex 49.3646 27.4572 55
  endloop
 endfacet
 facet normal -0.196609 0.980482 0
  outer loop
   vertex 29.519 23.4777 55
   vertex 49.3646 27.4572 5
   vertex 29.519 23.4777 5
  endloop
 endfacet
 facet normal 0.0956419 0.995416 -0
  outer loop
   vertex 129.406 26.3524 5
   vertex 109.332 28.2812 55
   vertex 129.406 26.3524 55
  endloop
 endfacet
 facet normal 0.0956419 0.995416 0
  outer loop
   vertex 109.332 28.2812 55
   vertex 129.406 26.3524 5
   vertex 109.332 28.2812 5
  endloop
 endfacet
 facet normal 0.169797 0.985479 -0
  outer loop
   vertex 169.656 20.078 5
   vertex 149.517 23.5479 55
   vertex 169.656 20.078 55
  endloop
 endfacet
 facet normal 0.169797 0.985479 0
  outer loop
   vertex 149.517 23.5479 55
   vertex 169.656 20.078 5
   vertex 149.517 23.5479 5
  endloop
 endfacet
 facet normal 0.196801 0.980443 -0
  outer loop
   vertex 189.816 16.0314 5
   vertex 169.656 20.078 55
   vertex 189.816 16.0314 55
  endloop
 endfacet
 facet normal 0.196801 0.980443 0
  outer loop
   vertex 169.656 20.078 55
   vertex 189.816 16.0314 5
   vertex 169.656 20.078 5
  endloop
 endfacet
endsolid airfoil
